<svg width="24" height="24" viewBox="0 0 24 24" fill="none" xmlns="http://www.w3.org/2000/svg">
<path d="M22.5591 16.3002L14.8891 3.58018C14.579 3.095 14.1517 2.69571 13.6466 2.41912C13.1415 2.14253 12.575 1.99756 11.9991 1.99756C11.4233 1.99756 10.8567 2.14253 10.3516 2.41912C9.84657 2.69571 9.41927 3.095 9.10912 3.58018L1.43912 16.3002C1.16818 16.7518 1.02091 17.2669 1.01214 17.7935C1.00336 18.3201 1.13338 18.8397 1.38912 19.3002C1.6848 19.8184 2.11278 20.2489 2.62932 20.5476C3.14587 20.8463 3.73245 21.0025 4.32912 21.0002H19.6691C20.2619 21.0065 20.8458 20.8564 21.362 20.5649C21.8782 20.2735 22.3084 19.851 22.6091 19.3402C22.8724 18.875 23.0066 18.3478 22.9978 17.8134C22.989 17.2789 22.8375 16.7565 22.5591 16.3002ZM20.8591 18.3502C20.7389 18.5568 20.5645 18.7266 20.3548 18.8411C20.145 18.9557 19.9079 19.0107 19.6691 19.0002H4.32912C4.09035 19.0107 3.85324 18.9557 3.64348 18.8411C3.43372 18.7266 3.25931 18.5568 3.13912 18.3502C3.05136 18.1982 3.00515 18.0257 3.00515 17.8502C3.00515 17.6746 3.05136 17.5022 3.13912 17.3502L10.8191 4.62018C10.9571 4.43789 11.1355 4.29005 11.3402 4.18826C11.545 4.08646 11.7705 4.03349 11.9991 4.03349C12.2278 4.03349 12.4533 4.08646 12.658 4.18826C12.8628 4.29005 13.0411 4.43789 13.1791 4.62018L20.8491 17.3402C20.9403 17.4925 20.9893 17.6663 20.991 17.8438C20.9928 18.0213 20.9473 18.1961 20.8591 18.3502Z" fill="#030A11"/>
<path d="M12 17C12.5523 17 13 16.5523 13 16C13 15.4477 12.5523 15 12 15C11.4477 15 11 15.4477 11 16C11 16.5523 11.4477 17 12 17Z" fill="#030A11"/>
<path d="M12 8C11.7348 8 11.4804 8.10536 11.2929 8.29289C11.1054 8.48043 11 8.73478 11 9V13C11 13.2652 11.1054 13.5196 11.2929 13.7071C11.4804 13.8946 11.7348 14 12 14C12.2652 14 12.5196 13.8946 12.7071 13.7071C12.8946 13.5196 13 13.2652 13 13V9C13 8.73478 12.8946 8.48043 12.7071 8.29289C12.5196 8.10536 12.2652 8 12 8Z" fill="#030A11"/>
</svg>
