<svg width="32" height="32" viewBox="0 0 32 32" fill="none" xmlns="http://www.w3.org/2000/svg">
<path d="M9.53621 4.01589C10.6455 3.15189 12.0962 2.67456 13.5375 2.67456C14.4002 2.67456 15.0975 2.97056 15.6269 3.44123C15.7695 3.56789 15.8962 3.70523 16.0095 3.84656C16.1229 3.70523 16.2495 3.56789 16.3922 3.44123C16.9215 2.97056 17.6189 2.67456 18.4815 2.67456C19.9229 2.67456 21.3749 3.15189 22.4815 4.01589C23.3455 4.68656 24.0215 5.61323 24.2869 6.73189C24.8469 6.82523 25.3442 7.11056 25.7469 7.48789C26.3869 8.08923 26.8442 8.95856 27.1309 9.85323C27.4229 10.7612 27.5682 11.7812 27.5242 12.7612C27.5015 13.2626 27.4282 13.7746 27.2882 14.2639L27.3749 14.3039C27.8682 14.5359 28.2682 14.8999 28.5682 15.3839C29.1349 16.2972 29.3349 17.6119 29.3349 19.2879C29.3349 21.2146 28.5975 22.5226 27.6509 23.3346C27.1578 23.7574 26.5807 24.071 25.9575 24.2546C25.7315 25.2965 25.2668 26.2718 24.6002 27.1039C23.6362 28.3092 22.1375 29.3279 20.1242 29.3279C18.5109 29.3279 17.2402 28.4346 16.4242 27.5812C16.2795 27.4287 16.1416 27.2699 16.0109 27.1052C15.8797 27.2695 15.7413 27.4278 15.5962 27.5799C14.7802 28.4359 13.5095 29.3279 11.8962 29.3279C9.88155 29.3279 8.38288 28.3092 7.42021 27.1039C6.75259 26.2721 6.28705 25.2967 6.06021 24.2546C5.43755 24.0709 4.86089 23.7573 4.36821 23.3346C3.42155 22.5212 2.68555 21.2146 2.68555 19.2879C2.68555 17.6119 2.88555 16.2972 3.45088 15.3839C3.75082 14.8866 4.19821 14.4952 4.73088 14.2639C4.59389 13.7739 4.51469 13.2696 4.49488 12.7612C4.45088 11.7812 4.59621 10.7612 4.88821 9.85323C5.17488 8.95989 5.63088 8.08923 6.27221 7.48789C6.67332 7.09693 7.18144 6.83382 7.73221 6.73189C7.99888 5.61189 8.67355 4.68656 9.53621 4.01589ZM10.7655 5.59323C10.0375 6.15989 9.61088 6.91456 9.61088 7.78389C9.61076 7.94226 9.57303 8.09834 9.50079 8.23927C9.42855 8.3802 9.32388 8.50196 9.19538 8.59453C9.06688 8.68709 8.91824 8.74782 8.76168 8.7717C8.60512 8.79558 8.44513 8.78194 8.29488 8.73189C8.11221 8.67056 7.91888 8.68523 7.64155 8.94656C7.33221 9.23589 7.01888 9.75989 6.79221 10.4639C6.56547 11.177 6.46441 11.9241 6.49355 12.6719C6.52688 13.4132 6.70288 14.0292 6.98021 14.4452C7.0261 14.5142 7.06327 14.5885 7.09088 14.6666H8.53355C9.4935 14.6664 10.418 15.0295 11.1212 15.683C11.8243 16.3364 12.2542 17.2318 12.3242 18.1892C12.8986 18.4184 13.3755 18.8401 13.6732 19.3821C13.9709 19.9241 14.071 20.5528 13.9564 21.1605C13.8417 21.7682 13.5194 22.3171 13.0446 22.7134C12.5698 23.1096 11.972 23.3285 11.3536 23.3326C10.7352 23.3367 10.1346 23.1258 9.65462 22.7359C9.17461 22.3459 8.84504 21.8013 8.72231 21.1952C8.59958 20.5891 8.69133 19.9592 8.98185 19.4133C9.27237 18.8673 9.74359 18.4393 10.3149 18.2026C10.2516 17.7754 10.0368 17.3853 9.7098 17.1034C9.38279 16.8214 8.96533 16.6664 8.53355 16.6666H5.03355C4.83355 17.1306 4.68555 17.9319 4.68555 19.2879C4.68555 20.6492 5.18021 21.3959 5.67088 21.8172C6.20821 22.2772 6.79888 22.3972 6.96955 22.3972C7.23476 22.3972 7.48912 22.5026 7.67665 22.6901C7.86419 22.8777 7.96955 23.132 7.96955 23.3972C7.96955 23.9572 8.27888 24.9746 8.98288 25.8546C9.66021 26.7039 10.6255 27.3279 11.8962 27.3279C12.7455 27.3279 13.5269 26.8506 14.1495 26.1999C14.4509 25.8826 14.6855 25.5532 14.8402 25.2866C14.8987 25.1868 14.95 25.083 14.9935 24.9759L15.0015 24.9572V12.3332H13.8069C13.5748 12.9069 13.1504 13.382 12.6065 13.6771C12.0625 13.9723 11.4329 14.069 10.8254 13.9508C10.218 13.8326 9.67055 13.5068 9.27697 13.0292C8.88338 12.5517 8.66815 11.9521 8.66815 11.3332C8.66815 10.7144 8.88338 10.1148 9.27697 9.63724C9.67055 9.15968 10.218 8.83387 10.8254 8.71566C11.4329 8.59745 12.0625 8.69419 12.6065 8.98931C13.1504 9.28443 13.5748 9.75954 13.8069 10.3332H15.0015V6.94923L14.9975 6.87323C14.9747 6.46258 14.8939 6.05723 14.7575 5.66923C14.6375 5.34923 14.4815 5.09989 14.2975 4.93589C14.1335 4.78923 13.9069 4.67456 13.5375 4.67456C12.5162 4.67456 11.5042 5.01856 10.7642 5.59456L10.7655 5.59323ZM17.0189 22.6666V24.9572L17.0255 24.9759C17.0522 25.0466 17.1029 25.1519 17.1802 25.2866C17.3335 25.5532 17.5682 25.8826 17.8709 26.1999C18.4922 26.8506 19.2749 27.3279 20.1242 27.3279C21.3935 27.3279 22.3589 26.7039 23.0375 25.8546C23.7402 24.9746 24.0509 23.9559 24.0509 23.3972C24.0509 23.132 24.1562 22.8777 24.3438 22.6901C24.5313 22.5026 24.7857 22.3972 25.0509 22.3972C25.2215 22.3972 25.8109 22.2772 26.3495 21.8172C26.8389 21.3959 27.3335 20.6492 27.3335 19.2879C27.3335 17.6772 27.1229 16.8479 26.8682 16.4386C26.7885 16.297 26.6676 16.1831 26.5215 16.1119C26.3869 16.0479 26.1842 15.9999 25.8709 15.9999C25.6899 15.9999 25.5123 15.9507 25.357 15.8577C25.2018 15.7647 25.0747 15.6313 24.9893 15.4717C24.9039 15.3122 24.8634 15.1324 24.8721 14.9516C24.8809 14.7708 24.9385 14.5958 25.0389 14.4452C25.3162 14.0279 25.4922 13.4132 25.5269 12.6719C25.5556 11.9241 25.454 11.177 25.2269 10.4639C25.0002 9.75989 24.6869 9.23723 24.3789 8.94656C24.1002 8.68523 23.9069 8.67056 23.7255 8.73189C23.5752 8.7822 23.4151 8.79604 23.2583 8.77229C23.1016 8.74853 22.9528 8.68785 22.8241 8.59525C22.6954 8.50266 22.5906 8.3808 22.5183 8.23973C22.446 8.09866 22.4083 7.94242 22.4082 7.78389C22.4082 6.91456 21.9815 6.15989 21.2535 5.59323C20.5162 5.01856 19.5029 4.67323 18.4802 4.67323C18.1122 4.67323 17.8869 4.78923 17.7215 4.93456C17.5128 5.13928 17.3556 5.39061 17.2629 5.66789C17.1134 6.07916 17.031 6.51179 17.0189 6.94923V20.6666H17.8669C18.3443 20.6666 18.8021 20.4769 19.1397 20.1394C19.4772 19.8018 19.6669 19.344 19.6669 18.8666V16.4732C19.0932 16.2412 18.6181 15.8168 18.323 15.2728C18.0278 14.7289 17.9311 14.0992 18.0493 13.4918C18.1675 12.8843 18.4933 12.3369 18.9709 11.9433C19.4485 11.5497 20.048 11.3345 20.6669 11.3345C21.2857 11.3345 21.8853 11.5497 22.3629 11.9433C22.8404 12.3369 23.1662 12.8843 23.2844 13.4918C23.4027 14.0992 23.3059 14.7289 23.0108 15.2728C22.7157 15.8168 22.2406 16.2412 21.6669 16.4732V18.8666C21.6669 19.8744 21.2665 20.8409 20.5539 21.5536C19.8412 22.2662 18.8747 22.6666 17.8669 22.6666H17.0189ZM11.3335 10.6666C11.1567 10.6666 10.9872 10.7368 10.8621 10.8618C10.7371 10.9868 10.6669 11.1564 10.6669 11.3332C10.6669 11.51 10.7371 11.6796 10.8621 11.8046C10.9872 11.9297 11.1567 11.9999 11.3335 11.9999C11.5104 11.9999 11.6799 11.9297 11.805 11.8046C11.93 11.6796 12.0002 11.51 12.0002 11.3332C12.0002 11.1564 11.93 10.9868 11.805 10.8618C11.6799 10.7368 11.5104 10.6666 11.3335 10.6666ZM10.6669 20.6666C10.6669 20.8434 10.7371 21.0129 10.8621 21.138C10.9872 21.263 11.1567 21.3332 11.3335 21.3332C11.5104 21.3332 11.6799 21.263 11.805 21.138C11.93 21.0129 12.0002 20.8434 12.0002 20.6666C12.0002 20.4897 11.93 20.3202 11.805 20.1952C11.6799 20.0701 11.5104 19.9999 11.3335 19.9999C11.1567 19.9999 10.9872 20.0701 10.8621 20.1952C10.7371 20.3202 10.6669 20.4897 10.6669 20.6666ZM20.0002 13.9999C20.0002 14.1767 20.0704 14.3463 20.1955 14.4713C20.3205 14.5963 20.4901 14.6666 20.6669 14.6666C20.8437 14.6666 21.0133 14.5963 21.1383 14.4713C21.2633 14.3463 21.3335 14.1767 21.3335 13.9999C21.3335 13.8231 21.2633 13.6535 21.1383 13.5285C21.0133 13.4035 20.8437 13.3332 20.6669 13.3332C20.4901 13.3332 20.3205 13.4035 20.1955 13.5285C20.0704 13.6535 20.0002 13.8231 20.0002 13.9999Z" fill="#030A11"/>
</svg>
