<svg width="24" height="24" viewBox="0 0 24 24" fill="none" xmlns="http://www.w3.org/2000/svg">
<g clip-path="url(#clip0_28_2409)">
<path d="M2.66602 3.33349L21.3327 3.3335C21.6863 3.3335 22.0254 3.47397 22.2755 3.72402C22.5255 3.97407 22.666 4.31321 22.666 4.66683L22.666 19.3335C22.666 19.6871 22.5255 20.0263 22.2755 20.2763C22.0254 20.5264 21.6863 20.6668 21.3327 20.6668L2.66601 20.6668C2.31239 20.6668 1.97325 20.5264 1.7232 20.2763C1.47315 20.0263 1.33268 19.6871 1.33268 19.3335L1.33268 4.66683C1.33268 4.31321 1.47316 3.97407 1.72321 3.72402C1.97325 3.47397 2.31239 3.33349 2.66602 3.33349ZM21.3327 19.3335L21.3327 4.66683L2.66602 4.66683L2.66601 19.3335L21.3327 19.3335Z" fill="#030A11"/>
<path d="M19.3339 7.86647C19.4039 7.86647 19.4732 7.85268 19.538 7.82587C19.6027 7.79907 19.6615 7.75979 19.711 7.71026C19.7605 7.66074 19.7998 7.60194 19.8266 7.53724C19.8534 7.47253 19.8672 7.40318 19.8672 7.33314C19.8672 7.2631 19.8534 7.19375 19.8266 7.12904C19.7998 7.06433 19.7605 7.00554 19.711 6.95601C19.6615 6.90649 19.6027 6.86721 19.538 6.8404C19.4732 6.8136 19.4039 6.7998 19.3339 6.7998L15.3339 6.7998C13.7312 6.7998 13.0885 7.9378 12.2319 10.9851L12.1105 11.4191L11.9879 11.8531C11.1125 14.9165 10.3012 16.1331 8.66719 16.1331L4.66719 16.1331C4.52574 16.1331 4.39008 16.1893 4.29006 16.2893C4.19004 16.3894 4.13385 16.525 4.13385 16.6665C4.13385 16.8079 4.19004 16.9436 4.29006 17.0436C4.39008 17.1436 4.52574 17.1998 4.66719 17.1998L8.66719 17.1998C10.9772 17.1998 12.0132 15.6458 13.0132 12.1465C13.0551 12 13.0965 11.8533 13.1372 11.7065L13.2585 11.2738C13.9719 8.73647 14.4639 7.86647 15.3339 7.86647L19.3339 7.86647Z" fill="#030A11"/>
</g>
<defs>
<clipPath id="clip0_28_2409">
<rect width="24" height="24" fill="white" transform="matrix(-1 -8.74228e-08 -8.74228e-08 1 24 0)"/>
</clipPath>
</defs>
</svg>
