<svg width="24" height="24" viewBox="0 0 24 24" fill="none" xmlns="http://www.w3.org/2000/svg">
<path d="M21 6.75C21 5.75544 20.6049 4.80161 19.9016 4.09835C19.1984 3.39509 18.2446 3 17.25 3H6.75C5.75544 3 4.80161 3.39509 4.09835 4.09835C3.39509 4.80161 3 5.75544 3 6.75V17.25C3 18.2446 3.39509 19.1984 4.09835 19.9016C4.80161 20.6049 5.75544 21 6.75 21H10.5V19.5H6.75C6.15326 19.5 5.58097 19.2629 5.15901 18.841C4.73705 18.419 4.5 17.8467 4.5 17.25V9H19.5V9.402C19.956 9.6653 20.3348 10.044 20.5981 10.5C20.8614 10.9561 21 11.4734 21 12V6.75ZM6.75 4.5H17.25C17.8467 4.5 18.419 4.73705 18.841 5.15901C19.2629 5.58097 19.5 6.15326 19.5 6.75V7.5H4.5V6.75C4.5 6.15326 4.73705 5.58097 5.15901 5.15901C5.58097 4.73705 6.15326 4.5 6.75 4.5ZM18 10.5C17.6022 10.5 17.2206 10.658 16.9393 10.9393C16.658 11.2206 16.5 11.6022 16.5 12V22.5C16.5 22.8978 16.658 23.2794 16.9393 23.5607C17.2206 23.842 17.6022 24 18 24C18.3978 24 18.7794 23.842 19.0607 23.5607C19.342 23.2794 19.5 22.8978 19.5 22.5V12C19.5 11.6022 19.342 11.2206 19.0607 10.9393C18.7794 10.658 18.3978 10.5 18 10.5ZM13.5 16.5C13.1022 16.5 12.7206 16.658 12.4393 16.9393C12.158 17.2206 12 17.6022 12 18V22.5C12 22.8978 12.158 23.2794 12.4393 23.5607C12.7206 23.842 13.1022 24 13.5 24C13.8978 24 14.2794 23.842 14.5607 23.5607C14.842 23.2794 15 22.8978 15 22.5V18C15 17.6022 14.842 17.2206 14.5607 16.9393C14.2794 16.658 13.8978 16.5 13.5 16.5ZM21 15C21 14.6022 21.158 14.2206 21.4393 13.9393C21.7206 13.658 22.1022 13.5 22.5 13.5C22.8978 13.5 23.2794 13.658 23.5607 13.9393C23.842 14.2206 24 14.6022 24 15V22.5C24 22.8978 23.842 23.2794 23.5607 23.5607C23.2794 23.842 22.8978 24 22.5 24C22.1022 24 21.7206 23.842 21.4393 23.5607C21.158 23.2794 21 22.8978 21 22.5V15Z" fill="#030A11"/>
</svg>
