<svg width="32" height="32" viewBox="0 0 32 32" fill="none" xmlns="http://www.w3.org/2000/svg">
<path d="M5.26306 17.7573C5.14369 18.0832 4.90195 18.3497 4.58921 18.5002C4.27647 18.6507 3.91738 18.6733 3.58823 18.5633C3.25908 18.4532 2.98582 18.2191 2.82651 17.9108C2.6672 17.6024 2.63439 17.2441 2.73506 16.912C2.70839 16.992 2.73506 16.9093 2.73506 16.9093C2.78248 16.7625 2.83767 16.6183 2.90039 16.4773C3.00706 16.224 3.16439 15.8747 3.38039 15.4613C3.82039 14.6347 4.50572 13.5333 5.51639 12.432C7.55639 10.2053 10.8977 8 15.9991 8C21.1004 8 24.4417 10.2053 26.4817 12.432C27.5706 13.6266 28.4537 14.9936 29.0951 16.4773L29.2177 16.7787C29.2257 16.8 29.2524 16.9387 29.2791 17.072L29.3324 17.3333C29.3324 17.3333 29.5564 18.2213 28.4204 18.5973C28.0858 18.7091 27.7207 18.6837 27.4048 18.5267C27.0889 18.3698 26.8481 18.0941 26.7351 17.76V17.752L26.7191 17.7093C26.5851 17.3668 26.432 17.032 26.2604 16.7067C25.7862 15.812 25.2002 14.9814 24.5164 14.2347C22.8897 12.4613 20.2311 10.6667 15.9991 10.6667C11.7671 10.6667 9.10839 12.4613 7.48172 14.2347C6.60103 15.2002 5.88484 16.3038 5.36172 17.5013C5.33375 17.5702 5.30708 17.6395 5.28172 17.7093L5.26306 17.7573ZM10.6657 18.6667C10.6657 17.2522 11.2276 15.8956 12.2278 14.8954C13.228 13.8952 14.5846 13.3333 15.9991 13.3333C17.4135 13.3333 18.7701 13.8952 19.7703 14.8954C20.7705 15.8956 21.3324 17.2522 21.3324 18.6667C21.3324 20.0812 20.7705 21.4377 19.7703 22.4379C18.7701 23.4381 17.4135 24 15.9991 24C14.5846 24 13.228 23.4381 12.2278 22.4379C11.2276 21.4377 10.6657 20.0812 10.6657 18.6667Z" fill="#030A11"/>
</svg>
