<svg width="32" height="32" viewBox="0 0 32 32" fill="none" xmlns="http://www.w3.org/2000/svg">
<path fill-rule="evenodd" clip-rule="evenodd" d="M15.1245 1.03249C9.306 1.39449 6.2655 4.68949 6 10.648H11.8695C11.943 8.58399 13.095 7.04099 15.24 6.81349C17.3455 6.58999 19.343 7.09149 19.948 8.53099C20.6015 10.086 19.1345 11.893 18.437 12.6515C17.146 14.058 15.049 15.084 13.962 16.6015C12.8965 18.0885 12.707 20.045 12.625 22.4395H17.798C17.8705 20.9085 17.9725 19.442 18.669 18.4905C19.802 16.9445 21.494 16.22 22.912 14.999C24.2665 13.832 25.6915 12.4255 25.9335 10.2485C26.66 3.73299 21.3415 0.644486 15.1245 1.03249Z" fill="#030A11"/>
<path d="M15.2582 30.9999C17.0619 30.9999 18.5242 29.5598 18.5242 27.7834C18.5242 26.007 17.0619 24.5669 15.2582 24.5669C13.4544 24.5669 11.9922 26.007 11.9922 27.7834C11.9922 29.5598 13.4544 30.9999 15.2582 30.9999Z" fill="#030A11"/>
</svg>
