<svg width="32" height="32" viewBox="0 0 32 32" fill="none" xmlns="http://www.w3.org/2000/svg">
<path d="M8.80039 3.19995C8.16387 3.19995 7.55342 3.45281 7.10333 3.9029C6.65325 4.35298 6.40039 4.96343 6.40039 5.59995V26.4C6.40039 27.0365 6.65325 27.6469 7.10333 28.097C7.55342 28.5471 8.16387 28.8 8.80039 28.8H16.4116C16.0041 28.3064 15.6516 27.7699 15.3604 27.2H8.80039C8.58822 27.2 8.38473 27.1157 8.23471 26.9656C8.08468 26.8156 8.00039 26.6121 8.00039 26.4V5.59995C8.00039 5.38778 8.08468 5.1843 8.23471 5.03427C8.38473 4.88424 8.58822 4.79995 8.80039 4.79995H20.0004C20.2126 4.79995 20.416 4.88424 20.5661 5.03427C20.7161 5.1843 20.8004 5.38778 20.8004 5.59995V14.7312C21.3234 14.5831 21.859 14.484 22.4004 14.4352V5.59995C22.4004 4.96343 22.1475 4.35298 21.6974 3.9029C21.2474 3.45281 20.6369 3.19995 20.0004 3.19995H8.80039ZM14.4004 23.2C14.4004 23.4688 14.4132 23.736 14.4356 24H12.0004C11.7882 24 11.5847 23.9157 11.4347 23.7656C11.2847 23.6156 11.2004 23.4121 11.2004 23.2C11.2004 22.9878 11.2847 22.7843 11.4347 22.6343C11.5847 22.4842 11.7882 22.4 12.0004 22.4H14.4356C14.4119 22.666 14.4001 22.9329 14.4004 23.2ZM30.4004 23.2C30.4004 25.1095 29.6418 26.9409 28.2916 28.2911C26.9413 29.6414 25.1099 30.4 23.2004 30.4C21.2908 30.4 19.4595 29.6414 18.1092 28.2911C16.759 26.9409 16.0004 25.1095 16.0004 23.2C16.0004 21.2904 16.759 19.459 18.1092 18.1088C19.4595 16.7585 21.2908 16 23.2004 16C25.1099 16 26.9413 16.7585 28.2916 18.1088C29.6418 19.459 30.4004 21.2904 30.4004 23.2ZM23.2004 19.2C22.9882 19.2 22.7847 19.2842 22.6347 19.4343C22.4847 19.5843 22.4004 19.7878 22.4004 20V23.2C22.4004 23.4121 22.4847 23.6156 22.6347 23.7656C22.7847 23.9157 22.9882 24 23.2004 24H25.6004C25.8126 24 26.016 23.9157 26.1661 23.7656C26.3161 23.6156 26.4004 23.4121 26.4004 23.2C26.4004 22.9878 26.3161 22.7843 26.1661 22.6343C26.016 22.4842 25.8126 22.4 25.6004 22.4H24.0004V20C24.0004 19.7878 23.9161 19.5843 23.7661 19.4343C23.616 19.2842 23.4126 19.2 23.2004 19.2Z" fill="#030A11"/>
</svg>
