<svg width="25" height="26" viewBox="0 0 25 26" fill="none" xmlns="http://www.w3.org/2000/svg">
<g clip-path="url(#clip0_46_472)">
<path d="M21.3333 10.9999L24.6667 16.9999L21.3333 17.6666V21.6666H19.3333L15.3333 20.9999L14.6667 25.6666H4.66667L3.33333 18.7459C1.28 16.8019 0 14.0506 0 10.9999C0 5.10859 4.77533 0.333252 10.6667 0.333252C16.558 0.333252 21.3333 5.10859 21.3333 10.9999Z" stroke="#030A11" stroke-width="3" stroke-linecap="round" stroke-linejoin="round"/>
<path d="M7.33398 9.66659C7.33398 9.00732 7.52948 8.36285 7.89575 7.81469C8.26202 7.26652 8.78262 6.83928 9.39171 6.58699C10.0008 6.3347 10.671 6.26869 11.3176 6.3973C11.9642 6.52592 12.5582 6.84339 13.0243 7.30956C13.4905 7.77574 13.808 8.36968 13.9366 9.01629C14.0652 9.66289 13.9992 10.3331 13.7469 10.9422C13.4946 11.5513 13.0674 12.0719 12.5192 12.4382C11.9711 12.8044 11.3266 12.9999 10.6673 12.9999V14.9999M10.6673 18.9999V19.6666" stroke="#030A11" stroke-width="3" stroke-linecap="round" stroke-linejoin="round"/>
</g>
<defs>
<clipPath id="clip0_46_472">
<rect width="24.6667" height="25.3333" fill="white" transform="translate(0 0.333252)"/>
</clipPath>
</defs>
</svg>
