<svg width="32" height="32" viewBox="0 0 32 32" fill="none" xmlns="http://www.w3.org/2000/svg">
<path d="M5.33268 26.6666C4.59935 26.6666 3.97179 26.4057 3.45002 25.8839C2.92735 25.3613 2.66602 24.7333 2.66602 23.9999V7.99992C2.66602 7.26659 2.92735 6.63903 3.45002 6.11725C3.97179 5.59459 4.59935 5.33325 5.33268 5.33325H26.666C27.3993 5.33325 28.0273 5.59459 28.55 6.11725C29.0718 6.63903 29.3327 7.26659 29.3327 7.99992V23.9999C29.3327 24.7333 29.0718 25.3613 28.55 25.8839C28.0273 26.4057 27.3993 26.6666 26.666 26.6666H5.33268ZM17.3327 23.9999H26.666V7.99992H17.3327V23.9999ZM19.666 13.3333H24.366C24.6327 13.3333 24.8607 13.2333 25.05 13.0333C25.2385 12.8333 25.3327 12.5999 25.3327 12.3333C25.3327 12.0444 25.2385 11.8053 25.05 11.6159C24.8607 11.4275 24.6216 11.3333 24.3327 11.3333H19.6327C19.366 11.3333 19.1385 11.4333 18.95 11.6333C18.7607 11.8333 18.666 12.0666 18.666 12.3333C18.666 12.6221 18.7607 12.8608 18.95 13.0493C19.1385 13.2386 19.3771 13.3333 19.666 13.3333ZM19.666 16.6666H24.366C24.6327 16.6666 24.8607 16.5666 25.05 16.3666C25.2385 16.1666 25.3327 15.9333 25.3327 15.6666C25.3327 15.3777 25.2385 15.1386 25.05 14.9493C24.8607 14.7608 24.6216 14.6666 24.3327 14.6666H19.6327C19.366 14.6666 19.1385 14.7666 18.95 14.9666C18.7607 15.1666 18.666 15.3999 18.666 15.6666C18.666 15.9555 18.7607 16.1941 18.95 16.3826C19.1385 16.5719 19.3771 16.6666 19.666 16.6666ZM19.666 19.9999H24.366C24.6327 19.9999 24.8607 19.8999 25.05 19.6999C25.2385 19.4999 25.3327 19.2666 25.3327 18.9999C25.3327 18.711 25.2385 18.4719 25.05 18.2826C24.8607 18.0941 24.6216 17.9999 24.3327 17.9999H19.6327C19.366 17.9999 19.1385 18.0999 18.95 18.2999C18.7607 18.4999 18.666 18.7333 18.666 18.9999C18.666 19.2888 18.7607 19.5275 18.95 19.7159C19.1385 19.9053 19.3771 19.9999 19.666 19.9999Z" fill="#030A11"/>
</svg>
