<svg width="32" height="32" viewBox="0 0 32 32" fill="none" xmlns="http://www.w3.org/2000/svg">
<g clip-path="url(#clip0_46_464)">
<path d="M30.3967 15.202H27.9711C27.5772 9.21195 22.7894 4.42315 16.7986 4.02923V1.60363C16.7945 1.39478 16.7086 1.19589 16.5594 1.04966C16.4102 0.903438 16.2096 0.821533 16.0007 0.821533C15.7918 0.821533 15.5913 0.903438 15.4421 1.04966C15.2929 1.19589 15.207 1.39478 15.2028 1.60363V4.02923C9.21176 4.42315 4.42424 9.21163 4.03032 15.202H1.60472C1.39306 15.202 1.19006 15.2861 1.04039 15.4358C0.890724 15.5855 0.806641 15.7884 0.806641 16.0001C0.806641 16.2118 0.890724 16.4148 1.04039 16.5644C1.19006 16.7141 1.39306 16.7982 1.60472 16.7982H4.03C4.42328 22.7892 9.21112 27.5771 15.2028 27.9707V30.3963C15.207 30.6051 15.2929 30.804 15.4421 30.9502C15.5913 31.0965 15.7918 31.1784 16.0007 31.1784C16.2096 31.1784 16.4102 31.0965 16.5594 30.9502C16.7086 30.804 16.7945 30.6051 16.7986 30.3963V27.9707C22.79 27.5771 27.5778 22.7889 27.9714 16.7982H30.3967C30.6084 16.7982 30.8114 16.7141 30.9611 16.5644C31.1107 16.4148 31.1948 16.2118 31.1948 16.0001C31.1948 15.7884 31.1107 15.5855 30.9611 15.4358C30.8114 15.2861 30.6084 15.202 30.3967 15.202ZM15.2025 24.7819C10.9746 24.4008 7.5996 21.0254 7.2188 16.7982H8.8156C9.18424 20.1531 11.8476 22.8164 15.2025 23.1851V24.7819ZM15.2025 8.81515C11.8476 9.18379 9.18424 11.8472 8.8156 15.202H7.2188C7.60024 10.9755 10.975 7.59979 15.2022 7.21835V8.81515H15.2025ZM16.7986 7.21867C21.0258 7.59979 24.4006 10.9755 24.782 15.202H23.1855C22.8169 11.8468 20.1535 9.18347 16.7986 8.81515V7.21867ZM16.7986 24.7819V23.1854C20.1535 22.8168 22.8169 20.1534 23.1855 16.7985H24.782C24.4012 21.0254 21.0262 24.4004 16.7986 24.7819Z" fill="#030A11"/>
</g>
<defs>
<clipPath id="clip0_46_464">
<rect width="32" height="32" fill="white"/>
</clipPath>
</defs>
</svg>
