<svg width="41" height="8" viewBox="0 0 41 8" fill="none" xmlns="http://www.w3.org/2000/svg">
<g clip-path="url(#clip0_46_393)">
<path d="M4.98816 5.53181L4.10156 5.9674V2.69701L4.98816 2.26142V5.53181ZM6.19178 4.94065L5.30518 5.37624V2.10585L6.19178 1.67026V4.94065ZM6.50879 4.78508V1.51469L7.39539 1.0791V4.34949L6.50879 4.78508Z" fill="#030A11"/>
<path d="M3.79209 5.0856V5.96543L0.5 4.34925V3.46942L3.79209 5.0856ZM3.79209 3.88946V4.76928L0.5 3.1531V2.27327L3.79209 3.88946ZM3.79209 2.69504V3.57486L0.5 1.95868V1.07886L3.79209 2.69504Z" fill="#030A11"/>
<path d="M9.49023 0.0419922V5.09264H12.0745C13.2866 5.09264 14.0611 4.54549 14.0611 3.67846C14.0611 3.03872 13.6654 2.53365 13.0425 2.40739C13.5644 2.25587 13.9011 1.82656 13.9011 1.3215C13.9011 0.547063 13.1435 0.0504182 11.9651 0.0504182H9.49023V0.0419922ZM10.9802 1.16997H11.8893C12.1839 1.16997 12.3691 1.32991 12.3691 1.59086C12.3691 1.86023 12.1839 2.02859 11.8893 2.02859H10.9802V1.16997ZM10.9802 3.04713H11.8893C12.2681 3.04713 12.5122 3.21548 12.5122 3.49327C12.5122 3.78789 12.2765 3.97308 11.8893 3.97308H10.9802V3.04713Z" fill="#030A11"/>
<path d="M16.4593 0.0419922H14.9609V5.09264H16.4593V0.0419922Z" fill="#030A11"/>
<path d="M21.2497 1.23732V0.0419922H17.3691V1.23732H18.556V5.09264H20.0628V1.23732H21.2497Z" fill="#030A11"/>
<path d="M24.4943 0C22.9286 0 21.7754 1.08589 21.7754 2.559C21.7754 4.04894 22.9034 5.16008 24.4438 5.16008C25.2098 5.16008 26.0348 4.78128 26.5819 4.18362L25.7149 3.25767C25.3698 3.61122 24.8984 3.8385 24.5112 3.8385C23.8293 3.8385 23.3074 3.27451 23.3074 2.53375C23.3074 1.79299 23.8293 1.23741 24.5112 1.23741C24.932 1.23741 25.395 1.50678 25.7149 1.91083L26.5819 0.892289C26.0684 0.345136 25.2519 0 24.4943 0Z" fill="#030A11"/>
<path d="M29.7057 0C28.1232 0 26.9531 1.07747 26.9531 2.56741C26.9531 4.05735 28.1232 5.16008 29.7057 5.16008C31.2883 5.16008 32.4583 4.04893 32.4583 2.56741C32.4583 1.08589 31.2883 0 29.7057 0ZM29.731 1.25425C30.396 1.25425 30.9263 1.80982 30.9263 2.57584C30.9263 3.34185 30.396 3.90583 29.731 3.90583C29.066 3.90583 28.4936 3.33343 28.4936 2.57584C28.4936 1.81824 29.0576 1.25425 29.731 1.25425Z" fill="#030A11"/>
<path d="M34.807 0.0419922H33.3086V5.09264H34.807V0.0419922Z" fill="#030A11"/>
<path d="M40.5006 5.09264V0.0419922H39.1285V2.86194L36.9904 0.0419922H35.7109V5.09264H37.083V2.28112L39.2211 5.09264H40.5006Z" fill="#030A11"/>
<path d="M10.9177 7.23708V5.97949H10.4759L10.1991 6.63499L9.92232 5.97949H9.48047V7.23708H9.84464V6.54759L10.0583 7.11569H10.3302L10.5438 6.54759V7.23708H10.9177Z" fill="#030A11"/>
<path d="M12.0239 7.06231L12.087 7.24196H12.5289L12.019 5.98438H11.5918L11.0625 7.24196H11.4898L11.5529 7.06231H12.0239ZM11.9219 6.76126H11.6597L11.7908 6.39224L11.9219 6.76126Z" fill="#030A11"/>
<path d="M13.4521 6.57665V6.86798C13.389 6.89226 13.3307 6.91168 13.287 6.91168C13.1219 6.91168 13.0054 6.78543 13.0054 6.61063C13.0054 6.44069 13.1219 6.31445 13.287 6.31445C13.389 6.31445 13.5152 6.36786 13.5978 6.44554L13.8309 6.15907C13.6949 6.04253 13.4813 5.96484 13.287 5.96484C12.8743 5.96484 12.5781 6.23676 12.5781 6.60578C12.5781 6.97966 12.8646 7.25157 13.2579 7.25157C13.4376 7.25157 13.6706 7.18359 13.8066 7.09134V6.57179H13.4521V6.57665Z" fill="#030A11"/>
<path d="M14.8891 7.06231L14.9523 7.24196H15.3941L14.8843 5.98438H14.457L13.9277 7.24196H14.355L14.4181 7.06231H14.8891ZM14.7872 6.76126H14.525L14.6561 6.39224L14.7872 6.76126Z" fill="#030A11"/>
<path d="M16.6283 6.24169V5.97949H15.5067V6.29996H16.0699L15.4824 6.97974V7.24194H16.638V6.92147H16.0408L16.6283 6.24169Z" fill="#030A11"/>
<path d="M17.2535 5.97949H16.8359V7.23708H17.2535V5.97949Z" fill="#030A11"/>
<path d="M18.7246 7.23708V5.97949H18.3507V6.62528L17.8555 5.97949H17.5059V7.23708H17.8846V6.59615L18.3799 7.23708H18.7246Z" fill="#030A11"/>
<path d="M20.0419 6.2951V5.97949H18.9785V7.23708H20.0613V6.92147H19.3961V6.76609H19.9836V6.45048H19.3961V6.2951H20.0419Z" fill="#030A11"/>
</g>
<defs>
<clipPath id="clip0_46_393">
<rect width="40" height="8" fill="white" transform="translate(0.5)"/>
</clipPath>
</defs>
</svg>
