<svg width="40" height="41" viewBox="0 0 40 41" fill="none" xmlns="http://www.w3.org/2000/svg">
<g clip-path="url(#clip0_46_452)">
<path d="M18.1543 20.3922C18.1543 21.4982 19.009 22.3623 20.103 22.3623C21.197 22.3623 22.0517 21.4982 22.0517 20.3922C22.0517 19.2862 21.197 18.4221 20.103 18.4221C19.009 18.4567 18.1543 19.3208 18.1543 20.3922ZM34.4962 18.4567C33.4022 18.4567 32.5475 19.3208 32.5475 20.4268C32.5475 21.5328 33.4022 22.3969 34.4962 22.3969C35.5902 22.3969 36.4449 21.5328 36.4449 20.4268C36.4449 19.3208 35.5902 18.4567 34.4962 18.4567ZM34.4962 33.2496C33.4022 33.2496 32.5475 34.1137 32.5475 35.2197C32.5475 36.3257 33.4022 37.1898 34.4962 37.1898C35.5902 37.1898 36.4449 36.3257 36.4449 35.2197C36.4449 34.1137 35.5902 33.2496 34.4962 33.2496Z" fill="#030A11"/>
<path d="M38.6334 2.1775C36.6847 -0.276471 33.1975 -0.380156 31.1463 1.55537L30.9069 1.79732L30.4283 2.1775C28.4796 3.7674 25.5736 3.62915 23.7616 1.79732V1.65906C23.1462 1.03692 22.3257 0.553042 21.471 0.311101C21.3343 0.311101 21.095 0.172852 20.9924 0.172852H19.0437C18.9069 0.172852 18.8044 0.172849 18.6676 0.311101H18.4283C18.2916 0.311101 18.189 0.449351 18.0522 0.449351C18.0522 0.449351 17.9155 0.44936 17.9155 0.587612C17.7787 0.587612 17.6762 0.725861 17.5394 0.725861C17.5394 0.725861 17.4027 0.725859 17.4027 0.864111C17.2659 1.00236 17.1633 1.00237 17.0266 1.10606C17.0266 1.10606 16.8898 1.10605 16.8898 1.24431C16.7531 1.38256 16.6505 1.38255 16.5138 1.48624L16.377 1.6245L16.1377 1.86644L15.6591 2.24663C13.7104 3.83653 10.8044 3.69827 9.12916 1.86644C9.12916 1.86644 8.9924 1.86644 8.9924 1.72819L8.75309 1.48624C8.03514 0.864107 7.18044 0.380225 6.22317 0.276536H4.03514C4.03514 0.414788 3.89839 0.414792 3.79582 0.518481H3.76164C3.14625 0.760422 2.56505 1.00236 2.05223 1.48624L1.91548 1.6245L1.53941 2.00469C1.06078 2.48857 0.821465 3.1107 0.582149 3.59458C0.582149 3.73284 0.445396 3.83653 0.445396 3.97478C0.445396 4.11303 0.308644 4.21672 0.308644 4.45866C0.171892 5.32273 0.171892 6.18681 0.445396 7.01632C0.445396 7.15457 0.582149 7.25826 0.582149 7.39651V7.53476C0.582149 7.67301 0.718901 7.7767 0.718901 7.91496C0.855653 8.05321 0.855652 8.1569 0.958216 8.39884C1.19753 8.53709 1.43685 8.77904 1.5736 8.88273L1.81292 9.12466L2.05223 9.36661C3.8642 11.1984 3.8642 14.3782 1.91548 16.3483C1.67617 16.5903 1.3001 16.9705 1.19753 17.2124C1.06078 17.3506 1.06078 17.4543 0.958216 17.6963V17.8345C0.821464 17.9728 0.821465 18.0765 0.718901 18.2147V18.353C0.718901 18.4912 0.582149 18.5949 0.582149 18.7332V18.8714C0.582149 19.0097 0.582148 19.1134 0.445396 19.2516V21.0835C0.445396 21.2217 0.445396 21.3254 0.582149 21.4636V21.6019C0.821465 22.466 1.3001 23.33 2.01805 24.0559C3.96676 26.026 3.96676 29.2058 2.01805 31.1413L1.88129 31.2795L1.64198 31.5215V31.6597C1.50523 31.798 1.40266 31.9017 1.40266 32.0399C1.40266 32.0399 1.40266 32.1782 1.26591 32.1782C1.12916 32.3164 1.12916 32.4201 1.02659 32.5584L0.889841 32.6966C0.889841 32.8349 0.753089 32.8349 0.753089 32.9385C0.753089 33.0422 0.616336 33.0768 0.616336 33.1805C0.616336 33.3187 0.616336 33.3188 0.479584 33.4224C0.240268 33.9063 0.103516 34.5284 0.103516 35.0123V35.9801C0.240268 36.3603 0.240268 36.7059 0.479584 36.9479C0.479584 37.0861 0.616336 37.1898 0.616336 37.1898C0.616336 37.1898 0.616337 37.3281 0.753089 37.3281C0.753089 37.4663 0.889841 37.57 0.889841 37.7082C0.889841 37.7082 0.889841 37.8465 1.02659 37.8465C1.16334 38.0884 1.26591 38.2267 1.40266 38.3304C1.40266 38.3304 1.40266 38.4686 1.53941 38.4686C1.53941 38.4686 1.53941 38.6069 1.67617 38.6069C1.67617 38.7451 1.81292 38.7451 1.81292 38.7451L1.94967 38.8834C2.08642 39.0216 2.18899 39.0216 2.18899 39.1253L2.32574 39.2636C2.32574 39.2636 2.46249 39.2636 2.46249 39.4018C2.59924 39.5401 2.70181 39.6438 2.83856 39.6438C2.83856 39.6438 2.97531 39.6438 2.97531 39.782C3.11206 39.9203 3.21463 39.9203 3.35138 40.024H3.41976C3.55651 40.1622 3.65907 40.1622 3.89839 40.1622C4.03514 40.1622 4.27446 40.3005 4.37702 40.3005H4.51377C4.65052 40.3005 4.75309 40.3005 4.88984 40.4387H5.98386C6.35993 40.4387 6.59924 40.3005 6.94112 40.3005H7.07788C7.21463 40.3005 7.31719 40.1622 7.45394 40.1622H7.52232C7.65907 40.1622 7.76164 40.024 7.89839 40.024H8.03514C8.27446 39.8857 8.65053 39.6438 8.88984 39.5401L9.26591 39.1599L9.40266 39.0216C11.3514 36.9479 14.4967 36.9479 16.4112 39.0216C18.5992 41.3374 22.2232 41.2337 24.2745 38.6414C25.7104 36.8096 25.7104 34.1137 24.2745 32.1436C22.3257 29.6896 18.8386 29.586 16.7873 31.5215L16.548 31.7634L16.0693 32.1436C14.1206 33.7335 11.2146 33.5952 9.40266 31.7634L9.16335 31.5215L8.78728 31.0376C7.21463 29.0675 7.35138 26.1296 9.16335 24.2978C10.2574 23.33 10.736 21.9821 10.736 20.6341V20.2539C10.736 19.0442 10.2574 17.8 9.3001 16.9359C9.3001 16.7976 9.16335 16.7976 9.16335 16.694L8.78728 16.2101C7.21463 14.24 7.35138 11.3021 9.16335 9.47029L9.3001 9.33204L9.43685 9.19379C11.3856 7.12001 14.5309 7.12001 16.4454 9.19379L16.5821 9.33204L16.7189 9.47029L16.9582 9.71224C17.095 9.71224 17.095 9.85049 17.1975 9.85049C17.3001 9.85049 17.3343 9.98874 17.4368 9.98874C17.5394 9.98874 17.5736 10.127 17.6762 10.127C17.7787 10.127 17.8129 10.2652 17.9155 10.2652C18.018 10.2652 18.0522 10.4035 18.1548 10.4035C18.2574 10.4035 18.2916 10.5417 18.3941 10.5417C18.4967 10.5417 18.5309 10.5417 18.6334 10.68C18.7702 10.68 18.7702 10.68 18.8727 10.8182H20.924C21.0608 10.8182 21.1633 10.8182 21.3001 10.68H21.5394C21.6762 10.68 21.7787 10.5417 21.9155 10.5417H22.0522C22.189 10.5417 22.2916 10.4035 22.5309 10.2998C23.0095 10.0579 23.4881 9.67767 23.8642 9.33204L24.0009 9.19379C25.9497 7.12001 29.095 7.12001 31.0095 9.19379C33.0608 11.6478 36.8215 11.5095 38.7702 8.95185C40.0693 6.70525 40.0693 4.00934 38.6334 2.1775Z" fill="#030A11"/>
</g>
<defs>
<clipPath id="clip0_46_452">
<rect width="40" height="40.7843" fill="white"/>
</clipPath>
</defs>
</svg>
