<svg width="40" height="39" viewBox="0 0 40 39" fill="none" xmlns="http://www.w3.org/2000/svg">
<mask id="path-1-inside-1_46_445" fill="white">
<path d="M23.4771 28.3469L16.7385 31.2849V30.9884C15.4447 31.3118 13.9892 31.5005 12.6415 31.5814C6.28032 31.5275 1.26685 28.1851 1.18598 24.2498V22.7943C3.26146 25.8132 7.52022 27.8617 12.6415 27.7808C14.3666 27.8617 16.1456 27.5922 17.628 27.1878L18.221 25.7323C16.469 26.2714 14.5283 26.6218 12.6415 26.6218C6.28032 26.6218 1.26685 23.3064 1.18598 19.2903V18.1043C3.26146 20.9075 7.52022 22.9291 12.6415 22.7943C14.9596 22.9291 17.1968 22.4439 19.1105 21.6083L19.407 20.1528C17.5472 21.1232 15.1482 21.6892 12.6685 21.6083C6.30728 21.6892 1.2938 18.3738 1.21294 14.2768V13.0908C3.28841 15.9479 7.54717 17.9965 12.6685 18.0773C15.5795 17.9965 18.3288 17.2148 20.593 16.0288L20.8895 14.2768C18.841 15.7862 15.8491 16.7835 12.6685 16.9183C6.30728 16.7835 1.2938 13.4412 1.21294 9.29026C1.26685 5.328 6.30728 2.01264 12.6685 1.95873C16.4421 2.01264 19.973 3.3334 22.0485 5.48973L22.2642 5.84013H23.7466L23.531 5.48973C21.4555 2.65954 17.2776 0.799701 12.6685 0.799701C5.60647 0.772747 0 4.6272 0 9.26332V9.55981V24.5194C0.242588 29.0477 5.71429 32.7404 12.6146 32.7404C17.1698 32.7674 21.2938 30.9614 23.4771 28.3469Z"/>
</mask>
<path d="M23.4771 28.3469L16.7385 31.2849V30.9884C15.4447 31.3118 13.9892 31.5005 12.6415 31.5814C6.28032 31.5275 1.26685 28.1851 1.18598 24.2498V22.7943C3.26146 25.8132 7.52022 27.8617 12.6415 27.7808C14.3666 27.8617 16.1456 27.5922 17.628 27.1878L18.221 25.7323C16.469 26.2714 14.5283 26.6218 12.6415 26.6218C6.28032 26.6218 1.26685 23.3064 1.18598 19.2903V18.1043C3.26146 20.9075 7.52022 22.9291 12.6415 22.7943C14.9596 22.9291 17.1968 22.4439 19.1105 21.6083L19.407 20.1528C17.5472 21.1232 15.1482 21.6892 12.6685 21.6083C6.30728 21.6892 1.2938 18.3738 1.21294 14.2768V13.0908C3.28841 15.9479 7.54717 17.9965 12.6685 18.0773C15.5795 17.9965 18.3288 17.2148 20.593 16.0288L20.8895 14.2768C18.841 15.7862 15.8491 16.7835 12.6685 16.9183C6.30728 16.7835 1.2938 13.4412 1.21294 9.29026C1.26685 5.328 6.30728 2.01264 12.6685 1.95873C16.4421 2.01264 19.973 3.3334 22.0485 5.48973L22.2642 5.84013H23.7466L23.531 5.48973C21.4555 2.65954 17.2776 0.799701 12.6685 0.799701C5.60647 0.772747 0 4.6272 0 9.26332V9.55981V24.5194C0.242588 29.0477 5.71429 32.7404 12.6146 32.7404C17.1698 32.7674 21.2938 30.9614 23.4771 28.3469Z" fill="#030A11"/>
<path d="M23.4771 28.3469L41.8988 43.73L13.8852 6.34699L23.4771 28.3469ZM16.7385 31.2849H-7.26146V67.9308L26.3305 53.2848L16.7385 31.2849ZM16.7385 30.9884H40.7385V0.249745L10.9177 7.70496L16.7385 30.9884ZM12.6415 31.5814L12.4381 55.5805L13.2592 55.5875L14.0789 55.5383L12.6415 31.5814ZM1.18598 24.2498H-22.814V24.4964L-22.809 24.7429L1.18598 24.2498ZM1.18598 22.7943L20.963 9.19762L-22.814 -54.478V22.7943H1.18598ZM12.6415 27.7808L13.7653 3.80716L13.0143 3.77195L12.2626 3.78382L12.6415 27.7808ZM17.628 27.1878L23.9429 50.3422L35.3811 47.2227L39.8543 36.2429L17.628 27.1878ZM18.221 25.7323L40.4473 34.7874L59.5469 -12.0937L11.163 2.79362L18.221 25.7323ZM1.18598 19.2903H-22.814V19.5319L-22.8092 19.7734L1.18598 19.2903ZM1.18598 18.1043L20.4746 3.82326L-22.814 -54.6445V18.1043H1.18598ZM12.6415 22.7943L14.0345 -1.16523L13.023 -1.22404L12.0102 -1.19738L12.6415 22.7943ZM19.1105 21.6083L28.7139 43.6032L40.1391 38.6147L42.6276 26.3988L19.1105 21.6083ZM19.407 20.1528L42.924 24.9433L52.9826 -24.4351L8.30543 -1.12524L19.407 20.1528ZM12.6685 21.6083L13.4507 -2.37892L12.9072 -2.39665L12.3634 -2.38974L12.6685 21.6083ZM1.21294 14.2768H-22.7871V14.5136L-22.7824 14.7504L1.21294 14.2768ZM1.21294 13.0908L20.6305 -1.01442L-22.7871 -60.7841V13.0908H1.21294ZM12.6685 18.0773L12.2896 42.0743L12.8123 42.0826L13.3349 42.0681L12.6685 18.0773ZM20.593 16.0288L31.7292 37.2888L42.2709 31.7669L44.2565 20.0334L20.593 16.0288ZM20.8895 14.2768L44.553 18.2814L54.4621 -40.2726L6.65271 -5.04455L20.8895 14.2768ZM12.6685 16.9183L12.1601 40.9129L12.9226 40.9291L13.6845 40.8968L12.6685 16.9183ZM1.21294 9.29026L-22.7848 8.96376L-22.7902 9.36075L-22.7825 9.75771L1.21294 9.29026ZM12.6685 1.95873L13.0113 -22.0388L12.7382 -22.0427L12.4651 -22.0404L12.6685 1.95873ZM22.0485 5.48973L42.4883 -7.08869L41.1332 -9.29068L39.3402 -11.1535L22.0485 5.48973ZM22.2642 5.84013L1.82441 18.4186L8.85314 29.8401H22.2642V5.84013ZM23.7466 5.84013V29.8401H66.6962L44.1864 -6.73821L23.7466 5.84013ZM23.531 5.48973L43.9708 -7.08861L43.4605 -7.91784L42.8847 -8.703L23.531 5.48973ZM12.6685 0.799701L12.5769 24.7995L12.6227 24.7997H12.6685V0.799701ZM0 24.5194H-24V25.1618L-23.9656 25.8032L0 24.5194ZM12.6146 32.7404L12.7566 8.74082L12.6856 8.7404H12.6146V32.7404ZM13.8852 6.34699L7.14661 9.285L26.3305 53.2848L33.069 50.3468L13.8852 6.34699ZM40.7385 31.2849V30.9884H-7.26146V31.2849H40.7385ZM10.9177 7.70496C11.0843 7.6633 11.2022 7.63933 11.2662 7.62718C11.3315 7.61479 11.3644 7.61021 11.3646 7.61019C11.3655 7.61006 11.3481 7.61248 11.3147 7.61577C11.2816 7.61903 11.2435 7.62209 11.2041 7.62446L14.0789 55.5383C16.474 55.3946 19.4624 55.0461 22.5594 54.2718L10.9177 7.70496ZM12.8449 7.58223C13.5818 7.58848 15.3332 7.75444 17.6117 9.23118C19.5589 10.4932 25.0017 15.0368 25.1809 23.7568L-22.809 24.7429C-22.5489 37.3982 -14.5589 45.5806 -8.49444 49.5111C-2.09868 53.6563 5.34004 55.5204 12.4381 55.5805L12.8449 7.58223ZM25.186 24.2498V22.7943H-22.814V24.2498H25.186ZM-18.591 36.391C-10.8814 47.6049 1.97835 51.9522 13.0204 51.7778L12.2626 3.78382C12.9665 3.77271 14.1266 3.89508 15.5781 4.54491C16.9685 5.16736 19.1185 6.51468 20.963 9.19762L-18.591 36.391ZM11.5177 51.7545C16.2733 51.9774 20.6023 51.2532 23.9429 50.3422L11.3132 4.03351C11.5899 3.95804 11.8704 3.89979 12.1906 3.85897C12.5013 3.81935 13.032 3.77278 13.7653 3.80716L11.5177 51.7545ZM39.8543 36.2429L40.4473 34.7874L-4.00521 16.6772L-4.5982 18.1328L39.8543 36.2429ZM11.163 2.79362C11.2553 2.76519 11.3858 2.73053 11.5775 2.69892C11.7636 2.66824 12.1202 2.62181 12.6415 2.62181V50.6218C17.3572 50.6218 21.6989 49.7726 25.2791 48.671L11.163 2.79362ZM12.6415 2.62181C13.3952 2.62181 15.2243 2.77873 17.5885 4.30711C19.7098 5.67853 25.0089 10.254 25.1811 18.8071L-22.8092 19.7734C-22.5561 32.3427 -14.7098 40.5839 -8.4712 44.6171C-1.98979 48.8072 5.52662 50.6218 12.6415 50.6218V2.62181ZM25.186 19.2903V18.1043H-22.814V19.2903H25.186ZM-18.1027 32.3853C-10.3485 42.8585 2.21155 47.0771 13.2729 46.786L12.0102 -1.19738C12.7468 -1.21677 13.8479 -1.09689 15.1982 -0.520165C16.4451 0.012369 18.5524 1.22704 20.4746 3.82326L-18.1027 32.3853ZM11.2485 46.7538C17.7461 47.1316 23.738 45.7758 28.7139 43.6032L9.50712 -0.386554C10.6556 -0.887989 12.173 -1.27346 14.0345 -1.16523L11.2485 46.7538ZM42.6276 26.3988L42.924 24.9433L-4.11003 15.3623L-4.40652 16.8178L42.6276 26.3988ZM8.30543 -1.12524C9.38831 -1.69022 10.3339 -1.99224 11.0859 -2.15859C11.8542 -2.32859 12.6385 -2.40541 13.4507 -2.37892L11.8863 45.5956C18.2798 45.8041 24.8008 44.4088 30.5086 41.4308L8.30543 -1.12524ZM12.3634 -2.38974C13.2005 -2.40038 15.1484 -2.24062 17.6154 -0.645722C19.9152 0.841021 25.0433 5.44433 25.2083 13.8032L-22.7824 14.7504C-22.5365 27.2063 -14.8612 35.5158 -8.44425 39.6643C-1.85994 43.9209 5.77525 45.6979 12.9735 45.6064L12.3634 -2.38974ZM25.2129 14.2768V13.0908H-22.7871V14.2768H25.2129ZM-18.2046 27.196C-10.5395 37.7481 1.82309 41.9091 12.2896 42.0743L13.0474 -5.91968C13.5316 -5.91203 14.4178 -5.81142 15.6051 -5.27989C16.697 -4.79103 18.7468 -3.60756 20.6305 -1.01442L-18.2046 27.196ZM13.3349 42.0681C20.0299 41.8821 26.3472 40.1079 31.7292 37.2888L9.45683 -5.23115C9.92461 -5.47618 10.3448 -5.63081 10.7222 -5.73088C11.1052 -5.83243 11.5296 -5.9003 12.0021 -5.91342L13.3349 42.0681ZM44.2565 20.0334L44.553 18.2814L-2.77405 10.2722L-3.07055 12.0242L44.2565 20.0334ZM6.65271 -5.04455C8.013 -6.04687 9.14433 -6.50372 9.79535 -6.71499C10.4901 -6.94046 11.099 -7.03673 11.6524 -7.06018L13.6845 40.8968C20.7714 40.5965 28.5894 38.4147 35.1263 33.5981L6.65271 -5.04455ZM13.1768 -7.07631C13.8171 -7.06275 15.5802 -6.90303 17.8909 -5.36388C20.0591 -3.91954 25.0485 0.614014 25.2084 8.82282L-22.7825 9.75771C-22.5417 22.1175 -15.0052 30.3976 -8.71969 34.5846C-2.29183 38.8663 5.15864 40.7646 12.1601 40.9129L13.1768 -7.07631ZM25.2107 9.61676C25.0907 18.4343 19.5684 23.0469 17.5903 24.3236C15.3 25.8017 13.5621 25.952 12.8718 25.9579L12.4651 -22.0404C5.41361 -21.9806 -2.02511 -20.1457 -8.43932 -16.0058C-14.5414 -12.0674 -22.611 -3.81608 -22.7848 8.96376L25.2107 9.61676ZM12.3256 25.9563C11.5853 25.9457 10.659 25.8176 9.5529 25.4019C8.51348 25.0113 6.66529 24.1158 4.75683 22.133L39.3402 -11.1535C31.6946 -19.097 21.3554 -21.9196 13.0113 -22.0388L12.3256 25.9563ZM1.60877 18.0682L1.82441 18.4186L42.7039 -6.73829L42.4883 -7.08869L1.60877 18.0682ZM22.2642 29.8401H23.7466V-18.1599H22.2642V29.8401ZM44.1864 -6.73821L43.9708 -7.08861L3.0912 18.0681L3.30684 18.4185L44.1864 -6.73821ZM42.8847 -8.703C35.1231 -19.287 22.7119 -23.2003 12.6685 -23.2003V24.7997C11.8165 24.7997 10.737 24.6403 9.46746 24.0874C8.28797 23.5738 6.13534 22.3525 4.17728 19.6825L42.8847 -8.703ZM12.7601 -23.2001C5.06384 -23.2295 -2.95065 -21.1867 -9.72826 -16.6184C-16.3291 -12.1691 -24 -3.46056 -24 9.26332H24C24 17.3511 19.1323 21.8143 17.1002 23.1841C14.8913 24.6729 13.2111 24.8019 12.5769 24.7995L12.7601 -23.2001ZM-24 9.26332V9.55981H24V9.26332H-24ZM-24 9.55981V24.5194H24V9.55981H-24ZM-23.9656 25.8032C-23.3173 37.9047 -15.8839 46.0939 -9.39167 50.3704C-2.72767 54.7601 5.08662 56.7404 12.6146 56.7404V8.7404C13.2422 8.7404 14.8705 8.87432 17.013 10.2856C18.9837 11.5837 23.5599 15.6624 23.9656 23.2355L-23.9656 25.8032ZM12.4725 56.74C22.6273 56.8001 34.2073 52.9408 41.8988 43.73L5.05536 12.9638C6.89311 10.763 8.74379 9.7777 9.76122 9.35682C10.8744 8.89634 11.8748 8.7356 12.7566 8.74082L12.4725 56.74Z" fill="#030A11" mask="url(#path-1-inside-1_46_445)"/>
<mask id="path-3-inside-2_46_445" fill="white">
<path d="M20.7281 38.6706L23.1 28.5897L16.2806 31.5547L20.4316 14.0884H12.4531L14.5286 5.48999H40.0003L37.9248 14.0884H29.6229L27.844 18.8323L37.0353 14.9779L20.7281 38.6706ZM24.879 26.5412L23.693 32.4711L33.4774 17.6733L25.472 21.2312L29.0299 12.9293H37.0353L38.5178 6.70293H15.3911L13.9087 12.9293H21.914L18.0596 29.5062L24.879 26.5412Z"/>
</mask>
<path d="M20.7281 38.6706L23.1 28.5897L16.2806 31.5547L20.4316 14.0884H12.4531L14.5286 5.48999H40.0003L37.9248 14.0884H29.6229L27.844 18.8323L37.0353 14.9779L20.7281 38.6706ZM24.879 26.5412L23.693 32.4711L33.4774 17.6733L25.472 21.2312L29.0299 12.9293H37.0353L38.5178 6.70293H15.3911L13.9087 12.9293H21.914L18.0596 29.5062L24.879 26.5412Z" fill="#030A11"/>
<path d="M20.7281 38.6706L-2.63395 33.1736L40.4978 52.2778L20.7281 38.6706ZM23.1 28.5897L46.462 34.0867L57.4246 -12.5043L13.5306 6.58004L23.1 28.5897ZM16.2806 31.5547L-7.06905 26.0055L-18.1667 72.7021L25.85 53.5644L16.2806 31.5547ZM20.4316 14.0884L43.7812 19.6375L50.8037 -9.91163H20.4316V14.0884ZM12.4531 14.0884L-10.8768 8.457L-18.0293 38.0884H12.4531V14.0884ZM14.5286 5.48999V-18.51H-4.36757L-8.80137 -0.141386L14.5286 5.48999ZM40.0003 5.48999L63.3303 11.1214L70.4827 -18.51H40.0003V5.48999ZM37.9248 14.0884V38.0884H56.821L61.2548 19.7197L37.9248 14.0884ZM29.6229 14.0884V-9.91163H12.9909L7.15103 5.66142L29.6229 14.0884ZM27.844 18.8323L5.37206 10.4054L-14.1515 62.4682L37.1254 40.965L27.844 18.8323ZM37.0353 14.9779L56.8051 28.585L103.173 -38.7821L27.7539 -7.1548L37.0353 14.9779ZM24.879 26.5412L48.4129 31.248L57.4178 -13.7764L15.3096 4.53152L24.879 26.5412ZM23.693 32.4711L0.159082 27.7643L43.7126 45.7081L23.693 32.4711ZM33.4774 17.6733L53.4969 30.9102L98.8156 -37.6296L23.7301 -4.2582L33.4774 17.6733ZM25.472 21.2312L3.41251 11.7772L-20.6873 68.0101L35.2193 43.1627L25.472 21.2312ZM29.0299 12.9293V-11.0707H13.2044L6.97046 3.47528L29.0299 12.9293ZM37.0353 12.9293V36.9293H55.9919L60.3827 18.4882L37.0353 12.9293ZM38.5178 6.70293L61.8652 12.2618L68.903 -17.2971H38.5178V6.70293ZM15.3911 6.70293V-17.2971H-3.56547L-7.95622 1.14403L15.3911 6.70293ZM13.9087 12.9293L-9.4387 7.37044L-16.4765 36.9293H13.9087V12.9293ZM21.914 12.9293L45.2904 18.3648L52.1348 -11.0707H21.914V12.9293ZM18.0596 29.5062L-5.31679 24.0707L-16.1213 70.5377L27.629 51.5158L18.0596 29.5062ZM44.0901 44.1675L46.462 34.0867L-0.261988 23.0928L-2.63395 33.1736L44.0901 44.1675ZM13.5306 6.58004L6.71119 9.545L25.85 53.5644L32.6695 50.5994L13.5306 6.58004ZM39.6303 37.1038L43.7812 19.6375L-2.9181 8.53922L-7.06905 26.0055L39.6303 37.1038ZM20.4316 -9.91163H12.4531V38.0884H20.4316V-9.91163ZM35.7831 19.7197L37.8586 11.1214L-8.80137 -0.141386L-10.8768 8.457L35.7831 19.7197ZM14.5286 29.49H40.0003V-18.51H14.5286V29.49ZM16.6703 -0.141381L14.5948 8.457L61.2548 19.7197L63.3303 11.1214L16.6703 -0.141381ZM37.9248 -9.91163H29.6229V38.0884H37.9248V-9.91163ZM7.15103 5.66142L5.37206 10.4054L50.3159 27.2593L52.0948 22.5153L7.15103 5.66142ZM37.1254 40.965L46.3168 37.1105L27.7539 -7.1548L18.5625 -3.30035L37.1254 40.965ZM17.2655 1.37067L0.958273 25.0634L40.4978 52.2778L56.8051 28.585L17.2655 1.37067ZM1.34507 21.8344L0.159082 27.7643L47.227 37.1779L48.4129 31.248L1.34507 21.8344ZM43.7126 45.7081L53.4969 30.9102L13.4578 4.4363L3.67346 19.2341L43.7126 45.7081ZM23.7301 -4.2582L15.7247 -0.700243L35.2193 43.1627L43.2247 39.6047L23.7301 -4.2582ZM47.5315 30.6853L51.0894 22.3834L6.97046 3.47528L3.41251 11.7772L47.5315 30.6853ZM29.0299 36.9293H37.0353V-11.0707H29.0299V36.9293ZM60.3827 18.4882L61.8652 12.2618L15.1705 1.14403L13.688 7.37044L60.3827 18.4882ZM38.5178 -17.2971H15.3911V30.7029H38.5178V-17.2971ZM-7.95622 1.14403L-9.4387 7.37044L37.256 18.4882L38.7385 12.2618L-7.95622 1.14403ZM13.9087 36.9293H21.914V-11.0707H13.9087V36.9293ZM-1.46235 7.49385L-5.31679 24.0707L41.436 34.9416L45.2904 18.3648L-1.46235 7.49385ZM27.629 51.5158L34.4484 48.5509L15.3096 4.53152L8.49017 7.49648L27.629 51.5158Z" fill="#030A11" mask="url(#path-3-inside-2_46_445)"/>
</svg>
