<svg width="40" height="15" viewBox="0 0 40 15" fill="none" xmlns="http://www.w3.org/2000/svg">
<g clip-path="url(#clip0_46_328)">
<path fill-rule="evenodd" clip-rule="evenodd" d="M0 0H14.4301V14.4292H0V0Z" fill="#030A11"/>
<path fill-rule="evenodd" clip-rule="evenodd" d="M3.6781 7.52652C3.6781 8.21465 3.87191 8.27866 4.64538 8.32222V8.55871H1.54883V8.32222C2.19428 8.27866 2.38809 8.21465 2.38809 7.52652V3.0964C2.38809 2.40828 2.19428 2.32204 1.57017 2.3007V2.04199H7.01113L7.0547 3.48314H6.79598C6.5595 2.75234 6.30167 2.53719 5.033 2.53719H4.04349C3.74211 2.53719 3.6781 2.6012 3.6781 2.85992V4.92428H4.17241C5.18325 4.92428 5.3984 4.75181 5.52731 4.06368H5.78514V6.36543H5.52731C5.3984 5.59107 5.01167 5.39726 4.17241 5.39726H3.6781V7.52652Z" fill="#030A11"/>
<path fill-rule="evenodd" clip-rule="evenodd" d="M13.183 2.04199H7.4629L7.33398 3.48314H7.65671C7.87186 2.79502 8.17236 2.53719 8.86048 2.53719H9.6784V7.52652C9.6784 8.21465 9.48459 8.27866 8.7529 8.32222V8.55871H11.893V8.32222C11.1622 8.27866 10.9684 8.21465 10.9684 7.52652V2.53719H11.7854C12.4736 2.53719 12.775 2.79502 12.9901 3.48314H13.3128L13.183 2.04199Z" fill="#030A11"/>
<path fill-rule="evenodd" clip-rule="evenodd" d="M16.8169 14.1502C16.8169 14.3218 16.8604 14.344 17.0756 14.3653V14.4293H16.2363V14.3653C16.4088 14.344 16.4515 14.3218 16.4515 14.1502V12.9242C16.4515 12.7304 16.4088 12.709 16.2363 12.709V12.645H17.7415V13.0318H17.6775C17.6126 12.8379 17.5486 12.7739 17.1832 12.7739H16.9245C16.8382 12.7739 16.8169 12.7953 16.8169 12.8602V13.4185H17.1183C17.3974 13.4185 17.4623 13.3758 17.505 13.182H17.5699V13.8275H17.505C17.4623 13.6123 17.3547 13.5696 17.1183 13.5696H16.8169V14.1502Z" fill="#030A11"/>
<path fill-rule="evenodd" clip-rule="evenodd" d="M18.5373 14.1502C18.5373 14.3218 18.5808 14.344 18.796 14.3653V14.4293H17.9141V14.3653C18.1292 14.344 18.1719 14.3218 18.1719 14.1502V12.9242C18.1719 12.7304 18.1292 12.709 17.9141 12.709V12.645H18.796V12.709C18.5808 12.709 18.5373 12.7304 18.5373 12.9242V14.1502Z" fill="#030A11"/>
<path fill-rule="evenodd" clip-rule="evenodd" d="M20.5388 12.9669C20.5388 12.7953 20.4739 12.7304 20.281 12.709V12.645H20.9255V12.709C20.7326 12.7304 20.6677 12.7953 20.6677 12.9669V14.4729H20.5815L19.3564 13.0531V14.0853C19.3564 14.2578 19.4204 14.344 19.6142 14.3653V14.4293H18.9688V14.3653C19.1626 14.344 19.2266 14.2578 19.2266 14.0853V12.8815C19.1626 12.7739 19.0763 12.7304 18.9688 12.709V12.645H19.4639L20.5388 13.8701V12.9669Z" fill="#030A11"/>
<path fill-rule="evenodd" clip-rule="evenodd" d="M21.3328 13.7846L21.612 13.0743L21.8707 13.7846H21.3328ZM22.6228 14.4292V14.3652C22.4939 14.3652 22.4512 14.3003 22.3863 14.1287L21.7631 12.6013H21.6769L21.0101 14.1927C20.9674 14.3003 20.9025 14.3439 20.7949 14.3652V14.4292H21.3541V14.3652C21.2466 14.3652 21.1825 14.3439 21.1825 14.2363C21.1825 14.1714 21.2688 13.9776 21.2901 13.9136H21.9347C21.956 13.9776 22.0423 14.1714 22.0423 14.2363C22.0423 14.3439 21.9782 14.3652 21.8493 14.3652V14.4292H22.6228Z" fill="#030A11"/>
<path fill-rule="evenodd" clip-rule="evenodd" d="M24.1718 12.9669C24.1718 12.7953 24.1291 12.7304 23.9353 12.709V12.645H24.5594V12.709C24.3656 12.7304 24.322 12.7953 24.322 12.9669V14.4729H24.2367L23.0107 13.0531V14.0853C23.0107 14.2578 23.0533 14.344 23.2472 14.3653V14.4293H22.623V14.3653C22.8169 14.344 22.8595 14.2578 22.8595 14.0853V12.8815C22.7955 12.7739 22.7306 12.7304 22.623 12.709V12.645H23.1182L24.1718 13.8701V12.9669Z" fill="#030A11"/>
<path fill-rule="evenodd" clip-rule="evenodd" d="M26.3434 13.9998C26.1718 14.3216 25.9131 14.4728 25.5477 14.4728C24.9671 14.4728 24.623 14.0851 24.623 13.5259C24.623 13.1179 24.9458 12.6013 25.569 12.6013C25.7415 12.6013 26.0206 12.7089 26.0642 12.7089C26.1069 12.7089 26.1282 12.6662 26.1718 12.6013H26.2571L26.3007 13.1819H26.2144C26.1069 12.924 25.9131 12.7089 25.6126 12.7089C25.1823 12.7089 25.0098 13.1819 25.0098 13.5259C25.0098 13.9998 25.2036 14.3216 25.6552 14.3216C25.9993 14.3216 26.1931 14.0638 26.2785 13.9562L26.3434 13.9998Z" fill="#030A11"/>
<path fill-rule="evenodd" clip-rule="evenodd" d="M27.0968 14.1502C27.0968 14.3218 27.1608 14.344 27.3759 14.3653V14.4293H26.4727V14.3653C26.6878 14.344 26.7527 14.3218 26.7527 14.1502V12.9242C26.7527 12.7304 26.6878 12.709 26.4727 12.709V12.645H27.3759V12.709C27.1608 12.709 27.0968 12.7304 27.0968 12.9242V14.1502Z" fill="#030A11"/>
<path fill-rule="evenodd" clip-rule="evenodd" d="M27.9578 13.7846L28.2378 13.0743L28.4957 13.7846H27.9578ZM29.2487 14.4292V14.3652C29.1189 14.3652 29.0762 14.3003 29.0122 14.1287L28.3881 12.6013H28.3019L27.6351 14.1927C27.5924 14.3003 27.5284 14.3439 27.4199 14.3652V14.4292H28.0014V14.3652C27.8716 14.3652 27.8075 14.3439 27.8075 14.2363C27.8075 14.1714 27.8938 13.9776 27.9151 13.9136H28.5597C28.5819 13.9776 28.6673 14.1714 28.6673 14.2363C28.6673 14.3439 28.6032 14.3652 28.4743 14.3652V14.4292H29.2487Z" fill="#030A11"/>
<path fill-rule="evenodd" clip-rule="evenodd" d="M29.334 14.4293V14.3653C29.5065 14.344 29.5705 14.3218 29.5705 14.1502V12.9242C29.5705 12.7304 29.5065 12.709 29.334 12.709V12.645H30.1732V12.709C29.9794 12.709 29.9145 12.7304 29.9145 12.9242V14.1715C29.9145 14.2791 29.9581 14.3218 30.151 14.3218C30.4737 14.3218 30.6676 14.2578 30.8178 13.9564H30.8827L30.7538 14.4293H29.334Z" fill="#030A11"/>
<path fill-rule="evenodd" clip-rule="evenodd" d="M32.0009 14.3653C32.1947 14.344 32.2587 14.3218 32.2587 14.1502V12.7739H32.0222C31.8284 12.7739 31.7431 12.8602 31.6782 13.0967H31.6133L31.6568 12.645H33.226L33.2482 13.0967H33.1833C33.1184 12.8602 33.0331 12.7739 32.8393 12.7739H32.6028V14.1502C32.6028 14.3218 32.6668 14.344 32.8606 14.3653V14.4293H32.0009V14.3653Z" fill="#030A11"/>
<path fill-rule="evenodd" clip-rule="evenodd" d="M34.0002 14.1502C34.0002 14.3218 34.0437 14.344 34.2589 14.3653V14.4293H33.377V14.3653C33.5921 14.344 33.6348 14.3218 33.6348 14.1502V12.9242C33.6348 12.7304 33.5921 12.709 33.377 12.709V12.645H34.2589V12.709C34.0437 12.709 34.0002 12.7304 34.0002 12.9242V14.1502Z" fill="#030A11"/>
<path fill-rule="evenodd" clip-rule="evenodd" d="M36.0424 12.645H36.6665V12.709C36.4941 12.709 36.4514 12.7304 36.4514 12.9242V14.1502C36.4514 14.3218 36.4941 14.344 36.6665 14.3653V14.4293H35.8495V14.3653C36.0424 14.344 36.086 14.3218 36.086 14.1502V12.8815L35.4832 14.4516H35.397L34.8164 12.8815V14.0853C34.8164 14.2578 34.86 14.344 35.0529 14.3653V14.4293H34.4297V14.3653C34.6235 14.344 34.6662 14.2578 34.6662 14.0853V12.8815C34.6662 12.7526 34.6022 12.709 34.4297 12.709V12.645H35.0751L35.5481 13.8701L36.0424 12.645Z" fill="#030A11"/>
<path fill-rule="evenodd" clip-rule="evenodd" d="M36.9238 14.4293V14.3653C37.0963 14.344 37.139 14.3218 37.139 14.1502V12.9242C37.139 12.7304 37.0963 12.709 36.9238 12.709V12.645H38.429V13.0318H38.365C38.3001 12.8379 38.2361 12.7739 37.8698 12.7739H37.612C37.5257 12.7739 37.5044 12.7953 37.5044 12.8602V13.4185H37.8058C38.0849 13.4185 38.1498 13.3758 38.1925 13.182H38.2574V13.8275H38.1925C38.1498 13.6123 38.0422 13.5696 37.8058 13.5696H37.5044V14.1715C37.5044 14.2791 37.5257 14.3218 37.8484 14.3218C38.1712 14.3218 38.365 14.2578 38.5152 13.9564H38.5801L38.4725 14.4293H36.9238Z" fill="#030A11"/>
<path fill-rule="evenodd" clip-rule="evenodd" d="M38.7305 13.87H38.7945C38.8807 14.1065 39.0959 14.3439 39.375 14.3439C39.5911 14.3439 39.6764 14.1927 39.6764 14.0425C39.6764 13.6335 38.7518 13.5695 38.7518 13.053C38.7518 12.7951 38.9883 12.6013 39.2683 12.6013C39.5262 12.6013 39.6337 12.6876 39.7413 12.6876C39.784 12.6876 39.8276 12.6449 39.8489 12.6013H39.9129V13.1605H39.8489C39.7627 12.9027 39.5911 12.7089 39.3324 12.7089C39.1385 12.7089 39.0745 12.8378 39.0745 12.9667C39.0745 13.333 39.9991 13.333 39.9991 13.9776C39.9991 14.2576 39.7627 14.4728 39.4399 14.4728C39.1172 14.4728 39.0319 14.3652 38.9243 14.3652C38.8594 14.3652 38.838 14.3865 38.8167 14.4514H38.7305V13.87Z" fill="#030A11"/>
<path fill-rule="evenodd" clip-rule="evenodd" d="M16.2148 11.7204H39.7844V11.5906H16.2148V11.7204Z" fill="#030A11"/>
<path fill-rule="evenodd" clip-rule="evenodd" d="M16.4722 8.51544C16.3433 8.36519 16.2793 8.21494 16.2793 8.02113C16.2793 7.82732 16.3433 7.65573 16.4722 7.52682C16.6234 7.39791 16.7736 7.33301 16.9674 7.33301C17.1603 7.33301 17.3328 7.39791 17.4617 7.52682C17.5906 7.65573 17.6769 7.82732 17.6769 8.02113C17.6769 8.21494 17.5906 8.36519 17.4617 8.51544C17.3328 8.64435 17.1603 8.70925 16.9674 8.70925C16.7736 8.70925 16.6234 8.64435 16.4722 8.51544Z" fill="#030A11"/>
<path fill-rule="evenodd" clip-rule="evenodd" d="M22.344 3.11795C22.7094 3.37577 22.9032 3.67716 22.9032 3.97765C22.9032 4.12879 22.8597 4.2577 22.7521 4.36528C22.6667 4.49419 22.5156 4.53686 22.3227 4.53686C22.1715 4.53686 22.0426 4.49419 21.9351 4.40795C21.8275 4.30038 21.7413 4.15013 21.6986 3.95632L21.6346 3.65582C21.5697 3.44067 21.4834 3.29042 21.3545 3.20418C21.2043 3.11795 21.0318 3.07527 20.8175 3.07527C20.3437 3.07527 19.9569 3.26819 19.6129 3.69849C19.2901 4.10746 19.1399 4.64533 19.1399 5.33256C19.1399 5.95667 19.3115 6.51588 19.6769 7.03153C20.0209 7.52673 20.5161 7.76322 21.118 7.76322C21.5483 7.76322 21.9351 7.6343 22.2578 7.35425C22.4516 7.18267 22.6667 6.92396 22.9032 6.57989L23.0748 6.68747C22.8383 7.16044 22.6018 7.5694 22.344 7.84856C21.8275 8.38644 21.2692 8.66649 20.6015 8.66649C19.9569 8.66649 19.3977 8.40778 18.9034 7.91347C18.4082 7.39782 18.1504 6.70881 18.1504 5.82776C18.1504 4.9885 18.4296 4.2577 18.9674 3.63448C19.5053 3.01037 20.1934 2.70898 21.0105 2.70898C21.527 2.70898 21.9786 2.8379 22.344 3.11795Z" fill="#030A11"/>
<path fill-rule="evenodd" clip-rule="evenodd" d="M26.4302 3.11784C27.0321 3.11784 27.5051 3.44056 27.8278 4.06379C28.1505 4.6879 28.3008 5.37602 28.3008 6.08548C28.3008 6.7736 28.1932 7.33281 27.9354 7.76311C27.6776 8.19341 27.3122 8.40767 26.8596 8.40767C26.2577 8.40767 25.7848 8.08583 25.462 7.44039C25.118 6.81716 24.9464 6.12815 24.9464 5.37602C24.9464 4.45141 25.1615 3.80596 25.5696 3.44056C25.8274 3.22541 26.1075 3.11784 26.4302 3.11784ZM23.8066 5.69874C23.8066 6.57979 24.0858 7.31147 24.6237 7.89202C25.1829 8.47257 25.8497 8.75173 26.6454 8.75173C27.4837 8.75173 28.1505 8.45123 28.6662 7.84846C29.1827 7.24657 29.4628 6.51578 29.4628 5.69874C29.4628 4.81681 29.1827 4.10735 28.6448 3.56948C28.1078 3.0316 27.4402 2.75244 26.6018 2.75244C25.7848 2.75244 25.118 3.0316 24.6023 3.61215C24.0645 4.17136 23.8066 4.85948 23.8066 5.69874Z" fill="#030A11"/>
<path fill-rule="evenodd" clip-rule="evenodd" d="M30.1719 8.38633C30.4937 8.34366 30.7089 8.30009 30.8164 8.21475C30.9889 8.10717 31.0751 7.87068 31.0751 7.52662V4.3225C31.0751 4.02111 31.0316 3.8273 30.9453 3.74106C30.86 3.63438 30.7311 3.59081 30.5373 3.59081C30.451 3.59081 30.387 3.59081 30.3435 3.61215C30.3008 3.61215 30.2581 3.63438 30.1932 3.65571V3.41923L30.6448 3.26809C30.7951 3.22541 31.0751 3.11784 31.4405 2.96759C31.8059 2.81645 31.9998 2.75244 32.0211 2.75244C32.0424 2.75244 32.0638 2.77378 32.0638 2.79512C32.0638 2.81645 32.0638 2.86002 32.0638 2.90269V3.76329C32.4727 3.37566 32.8381 3.11784 33.1395 2.96759C33.4187 2.83779 33.7201 2.75244 34.0428 2.75244C34.4722 2.75244 34.7949 2.90269 35.0527 3.20408C35.1825 3.35433 35.2901 3.56948 35.3755 3.84864C35.6982 3.54814 35.956 3.31165 36.1934 3.13918C36.5801 2.88135 36.9882 2.75244 37.3972 2.75244C38.0639 2.75244 38.5156 3.0316 38.7307 3.56948C38.8596 3.87086 38.9245 4.34384 38.9245 5.01062V7.5693C38.9245 7.87068 38.9886 8.06361 39.1175 8.17118C39.2464 8.27876 39.4829 8.34366 39.8278 8.38633V8.55881H37.0531V8.38633C37.3972 8.34366 37.6336 8.27876 37.7412 8.17118C37.8701 8.04227 37.9137 7.82712 37.9137 7.48306V4.83815C37.9137 4.43007 37.8701 4.15002 37.7848 3.95621C37.6336 3.61215 37.3331 3.44056 36.8815 3.44056C36.6015 3.44056 36.3436 3.54814 36.0636 3.71972C35.9133 3.8273 35.7204 3.97755 35.5053 4.21492V7.35415C35.5053 7.67687 35.5479 7.9347 35.6769 8.10717C35.7844 8.27876 36.0423 8.36499 36.4077 8.38633V8.55881H33.5698V8.38633C33.9779 8.32232 34.2144 8.23608 34.3219 8.10717C34.4295 7.97826 34.4944 7.6342 34.4944 7.07499V5.35379C34.4944 4.73057 34.4509 4.30027 34.3655 4.04245C34.2357 3.65571 33.9352 3.44056 33.5049 3.44056C33.2471 3.44056 33.0106 3.5268 32.7528 3.65571C32.5154 3.78462 32.3003 3.97755 32.1073 4.1927V7.5693C32.1073 7.87068 32.1713 8.08583 32.2789 8.19341C32.3865 8.32232 32.623 8.36499 32.9893 8.38633V8.55881H30.1719V8.38633Z" fill="#030A11"/>
</g>
<defs>
<clipPath id="clip0_46_328">
<rect width="40" height="14.4728" fill="white"/>
</clipPath>
</defs>
</svg>
