<svg width="40" height="11" viewBox="0 0 40 11" fill="none" xmlns="http://www.w3.org/2000/svg">
<g clip-path="url(#clip0_46_355)">
<path d="M24.3622 2.8653C23.7193 2.8653 23.2143 3.00322 22.7091 3.27853C22.7091 1.80889 22.7091 0.477178 22.7552 0.0180664L19.6778 0.568947V0.84452L19.9992 0.890405C20.4122 0.982174 20.5506 1.2116 20.6416 1.76301C20.7342 2.8653 20.6878 8.7441 20.6416 9.70874C21.4683 9.89254 22.3412 10.0305 23.2141 10.0305C25.6483 10.0305 27.118 8.51468 27.118 6.12629C27.118 4.24343 25.9239 2.8653 24.3622 2.8653ZM23.3058 9.52494C23.122 9.52494 22.8921 9.52494 22.7547 9.47932C22.7085 8.8364 22.6629 6.12629 22.7085 3.73817C22.9841 3.64613 23.1677 3.60025 23.3976 3.60025C24.4087 3.60025 24.9598 4.79431 24.9598 6.26368C24.9595 8.10145 24.2705 9.52494 23.3058 9.52494ZM8.10318 0.201605H0.0195312V0.614832L0.478908 0.660716C1.07567 0.752486 1.30563 1.11983 1.39713 1.99243C1.53532 3.64587 1.48917 6.63155 1.39713 8.05477C1.30536 8.92764 1.07594 9.34113 0.478908 9.38649L0.0195312 9.47878V9.84613H5.20953V9.47878L4.65839 9.38649C4.06136 9.34087 3.83167 8.92764 3.7399 8.05477C3.69375 7.45748 3.64786 6.49284 3.64786 5.29904L4.75015 5.34493C5.43922 5.34493 5.76041 5.89607 5.89833 6.67664H6.31182V3.41671H5.89833C5.76015 4.19755 5.43922 4.74843 4.75015 4.74843L3.64813 4.79458C3.64813 3.23291 3.69401 1.76327 3.74016 0.89067H5.34745C6.58793 0.89067 7.23084 1.67124 7.68995 3.04937L8.14933 2.91145L8.10318 0.201605Z" fill="#030A11"/>
<path d="M10.7211 2.77361C13.0177 2.77361 14.1659 4.33527 14.1659 6.40194C14.1659 8.37683 12.8798 10.0308 10.5832 10.0308C8.28685 10.0308 7.13867 8.46887 7.13867 6.40194C7.13867 4.42704 8.4245 2.77361 10.7211 2.77361ZM10.5832 3.23298C9.57268 3.23298 9.29711 4.61085 9.29711 6.40194C9.29711 8.14714 9.75648 9.57089 10.6752 9.57089C11.7308 9.57089 12.0069 8.19303 12.0069 6.40194C12.0069 4.65673 11.5481 3.23298 10.5832 3.23298ZM27.7146 6.44809C27.7146 4.56496 28.9087 2.77361 31.2512 2.77361C33.1796 2.77361 34.0987 4.19762 34.0987 6.08048H29.8272C29.781 7.7798 30.6077 9.02001 32.2614 9.02001C32.9964 9.02001 33.3637 8.83674 33.8234 8.51502L34.0066 8.74444C33.5473 9.38736 32.537 10.0308 31.2512 10.0308C29.1842 10.0305 27.7146 8.5609 27.7146 6.44809ZM29.8272 5.57548L31.9859 5.52933C31.9859 4.61085 31.8479 3.23298 31.0674 3.23298C30.2868 3.23298 29.8728 4.51881 29.8272 5.57548ZM39.565 3.14121C39.0139 2.91126 38.2792 2.77361 37.4525 2.77361C35.7534 2.77361 34.6965 3.78386 34.6965 4.97819C34.6965 6.17251 35.4765 6.67751 36.5802 7.04512C37.7281 7.45808 38.0498 7.7798 38.0498 8.33095C38.0498 8.88209 37.6363 9.38709 36.9013 9.38709C36.029 9.38709 35.3856 8.88209 34.8806 7.50396L34.5588 7.59626L34.605 9.61704C35.1561 9.84647 36.1664 10.0305 37.0393 10.0305C38.8306 10.0305 39.9791 9.11152 39.9791 7.68803C39.9791 6.7234 39.4735 6.17251 38.2795 5.71287C36.9931 5.20788 36.5343 4.88642 36.5343 4.28912C36.5343 3.69209 36.9483 3.2786 37.4994 3.2786C38.3256 3.2786 38.8768 3.78386 39.2908 5.02407L39.612 4.9323L39.565 3.14121ZM20.1365 2.95741C19.3559 2.49856 17.9778 2.72772 17.2431 4.38142L17.2887 2.77387L14.2118 3.3709V3.64647L14.5333 3.69236C14.947 3.73851 15.1303 3.96793 15.1764 4.56523C15.2682 5.66752 15.2223 7.59679 15.1764 8.56117C15.1303 9.11178 14.947 9.38736 14.5333 9.43351L14.2118 9.47966V9.847H18.483V9.47966L17.9319 9.43351C17.4728 9.38736 17.3349 9.11178 17.2887 8.56117C17.197 7.6883 17.197 5.94309 17.2431 4.8408C17.4725 4.51908 18.483 4.24377 19.4015 4.8408L20.1365 2.95741Z" fill="#030A11"/>
</g>
<defs>
<clipPath id="clip0_46_355">
<rect width="40" height="10.0409" fill="white"/>
</clipPath>
</defs>
</svg>
