<svg width="40" height="7" viewBox="0 0 40 7" fill="none" xmlns="http://www.w3.org/2000/svg">
<g clip-path="url(#clip0_46_362)">
<path d="M0.733333 5.36676C0.253333 4.90676 0 4.2401 0 3.38676V0.21343H1.93333V3.3201C1.93333 3.73343 2 4.05343 2.16 4.2401C2.32 4.42676 2.52667 4.51343 2.80667 4.51343C3.08667 4.51343 3.31333 4.4201 3.45333 4.2401C3.61333 4.05343 3.68 3.73343 3.68 3.3201V0.21343H5.58667V3.3601C5.58667 4.21343 5.33333 4.8801 4.85333 5.3601C4.34667 5.8401 3.68 6.07343 2.78667 6.07343C1.90667 6.0801 1.22 5.85343 0.733333 5.36676ZM7.19333 0.793431C7.4 0.793431 7.51333 0.860098 7.56 0.933431C7.62667 1.0001 7.7 1.07343 7.7 1.2801C7.7 1.48676 7.63333 1.5801 7.56 1.62676C7.49333 1.69343 7.4 1.76676 7.19333 1.76676C6.98667 1.76676 6.89333 1.7001 6.82667 1.62676C6.76 1.5601 6.68667 1.46676 6.68667 1.2801C6.68667 1.09343 6.75333 1.00676 6.82667 0.933431C6.89333 0.886764 6.98667 0.793431 7.19333 0.793431ZM7.19333 0.220097C6.89333 0.220097 6.64 0.33343 6.43333 0.520097C6.22667 0.706763 6.13333 0.960096 6.13333 1.2801C6.13333 1.6001 6.22667 1.85343 6.43333 2.0401C6.64 2.24676 6.89333 2.3401 7.21333 2.3401C7.53333 2.3401 7.78667 2.24676 7.99333 2.0401C8.2 1.83343 8.29333 1.5801 8.29333 1.2801C8.29333 0.980096 8.2 0.706763 7.99333 0.520097C7.77333 0.33343 7.52 0.220097 7.19333 0.220097ZM10.5533 1.7401H8.87333V0.220097H14.16V1.71343H12.48V5.9401H10.5467C10.5533 5.94676 10.5533 1.7401 10.5533 1.7401ZM15.9333 5.71343C15.4667 5.46676 15.0667 5.10676 14.7867 4.65343C14.5133 4.19343 14.3733 3.68676 14.3733 3.11343C14.3733 2.5401 14.5133 2.03343 14.7867 1.57343C15.06 1.11343 15.4533 0.766763 15.9333 0.51343C16.4133 0.21343 16.9667 0.100098 17.5867 0.100098C18.2067 0.100098 18.76 0.240097 19.24 0.493431C19.7067 0.740097 20.1067 1.1001 20.3867 1.55343C20.66 1.99343 20.8 2.5201 20.8 3.09343C20.8 3.66676 20.66 4.17343 20.3867 4.63343C20.1133 5.09343 19.72 5.4401 19.24 5.69343C18.76 5.94676 18.2067 6.08676 17.5867 6.08676C16.9667 6.0801 16.4133 5.96676 15.9333 5.71343ZM18.2267 4.3601C18.4267 4.2401 18.5867 4.0601 18.6867 3.85343C18.8 3.64676 18.8467 3.39343 18.8467 3.09343C18.8467 2.79343 18.8 2.5401 18.6867 2.33343C18.5733 2.12676 18.4133 1.9401 18.2267 1.82676C18.04 1.71343 17.8133 1.6401 17.58 1.6401C17.1133 1.6401 16.6867 1.90676 16.4733 2.32676C16.36 2.53343 16.3133 2.78676 16.3133 3.08676C16.3133 3.38676 16.38 3.6401 16.4733 3.84676C16.5867 4.05343 16.7467 4.2401 16.9333 4.35343C17.12 4.46676 17.3467 4.5401 17.58 4.5401C17.8133 4.5201 18.0467 4.47343 18.2267 4.3601ZM21.52 0.220097H24.3467C24.9933 0.220097 25.54 0.333431 26.0467 0.566764C26.5133 0.786764 26.9067 1.12676 27.1933 1.55343C27.4667 1.99343 27.6067 2.49343 27.6067 3.07343C27.6067 3.64676 27.4667 4.15343 27.1933 4.59343C26.92 5.03343 26.5467 5.35343 26.0467 5.5801C25.5667 5.80676 24.9867 5.92676 24.3467 5.92676H21.52V0.220097ZM24.2733 4.44676C24.6867 4.44676 25.0067 4.33343 25.26 4.1001C25.5133 3.86676 25.6267 3.52676 25.6267 3.08676C25.6267 2.64676 25.5133 2.32676 25.26 2.07343C25.0067 1.84676 24.6867 1.72676 24.2733 1.72676H23.4467V4.4401H24.2733V4.44676ZM32.1133 4.95343H29.9333L29.54 5.9401H27.5867L30.0933 0.21343H32L34.48 5.9601H32.48C32.48 5.96676 32.1133 4.95343 32.1133 4.95343ZM31.5867 3.57343L31.0333 2.12676L30.48 3.57343H31.5867ZM37.84 3.87343V5.9401H35.9067V3.82676L33.7467 0.193431H35.7933L36.9667 2.17343L38.14 0.193431H40C40 0.200097 37.84 3.87343 37.84 3.87343Z" fill="#030A11"/>
</g>
<defs>
<clipPath id="clip0_46_362">
<rect width="40" height="7" fill="white"/>
</clipPath>
</defs>
</svg>
